PathFileType	4	(X/Y/Z)	output.trc
DataRate	CameraRate	NumFrames	NumMarkers	Units	OrigDataRate	OrigDataStartFrame	OrigNumFrames
100	100	15	23	m	100	1877	3753
Frame#	Time	C7			T8			EL			EM			US			RS			AA			Fore_Clus_1			Fore_Clus_2			Fore_Clus_3			Fore_Clus_4			Hum_Clus_1			Hum_Clus_2			Hum_Clus_3			Hum_Clus_4			Thor_Clus_1			Thor_Clus_2			Thor_Clus_3			Thor_Clus_4			IJ			PX			GH			Thor_Clus_5		
		X1	Y1	Z1	X2	Y2	Z2	X3	Y3	Z3	X4	Y4	Z4	X5	Y5	Z5	X6	Y6	Z6	X7	Y7	Z7	X8	Y8	Z8	X9	Y9	Z9	X10	Y10	Z10	X11	Y11	Z11	X12	Y12	Z12	X13	Y13	Z13	X14	Y14	Z14	X15	Y15	Z15	X16	Y16	Z16	X17	Y17	Z17	X18	Y18	Z18	X19	Y19	Z19	X20	Y20	Z20	X21	Y21	Z21	X22	Y22	Z22	X23	Y23	Z23
1876	18.760000	-0.031636	1.572248	-0.067330	-0.039402	1.328748	-0.110118	-0.264504	1.180243	0.066996	-0.199487	1.165143	0.028509	-0.093473	1.180212	0.296390	-0.073073	1.237827	0.272809	-0.201995	1.498498	0.033691	-0.148797	1.194436	0.272646	-0.117032	1.203812	0.316304	-0.112771	1.230085	0.307154	-0.141491	1.236117	0.258085	-0.254912	1.291874	0.120817	-0.276314	1.299415	0.064969	-0.280094	1.362840	0.063538	-0.251985	1.365867	0.115011	0.098316	1.471262	0.093185	0.052699	1.422930	0.145195	0.058930	1.470916	0.113494	0.109812	1.422913	0.114966	0.036405	1.499757	0.052760	0.065025	1.318792	0.106643	-0.164996	1.477963	0.054920	0.047604	1.444304	0.134918
1877	18.770000	-0.031744	1.572189	-0.067255	-0.039529	1.328680	-0.109986	-0.264541	1.180245	0.067058	-0.199523	1.165146	0.028572	-0.093540	1.180167	0.296462	-0.073103	1.237768	0.272877	-0.202055	1.498460	0.033864	-0.148839	1.194406	0.272715	-0.117081	1.203778	0.316374	-0.112810	1.230049	0.307212	-0.141532	1.236093	0.258148	-0.254942	1.291873	0.120883	-0.276353	1.299419	0.065042	-0.280125	1.362838	0.063612	-0.252024	1.365863	0.115078	0.097892	1.470949	0.092612	0.052700	1.422907	0.145249	0.058901	1.470895	0.113541	0.109803	1.422894	0.115001	0.036354	1.499724	0.052819	0.065001	1.318771	0.106727	-0.165021	1.477962	0.055013	0.047592	1.444284	0.134973
1878	18.780000	-0.031858	1.572127	-0.067179	-0.039665	1.328608	-0.109850	-0.264579	1.180248	0.067114	-0.199560	1.165150	0.028632	-0.093606	1.180119	0.296529	-0.073136	1.237706	0.272939	-0.202117	1.498421	0.034044	-0.148892	1.194377	0.272766	-0.117127	1.203738	0.316416	-0.112856	1.229996	0.307268	-0.141568	1.236059	0.258199	-0.254980	1.291873	0.120955	-0.276387	1.299416	0.065108	-0.280156	1.362847	0.063686	-0.252050	1.365861	0.115145	0.097919	1.470974	0.092762	0.052712	1.422852	0.145275	0.058850	1.470848	0.113606	0.109779	1.422871	0.115018	0.036302	1.499690	0.052876	0.064977	1.318749	0.106812	-0.165046	1.477962	0.055104	0.047569	1.444266	0.135036
1879	18.790000	-0.031974	1.572063	-0.067104	-0.039804	1.328534	-0.109714	-0.264619	1.180253	0.067165	-0.199597	1.165155	0.028687	-0.093671	1.180068	0.296590	-0.073172	1.237644	0.272997	-0.202179	1.498381	0.034227	-0.148936	1.194345	0.272816	-0.117180	1.203689	0.316481	-0.112891	1.229944	0.307314	-0.141614	1.236025	0.258251	-0.255012	1.291869	0.121028	-0.276422	1.299428	0.065177	-0.280180	1.362853	0.063758	-0.252090	1.365871	0.115218	0.097899	1.470949	0.092789	0.052711	1.422836	0.145335	0.058841	1.470844	0.113667	0.109767	1.422858	0.115069	0.036250	1.499654	0.052932	0.064953	1.318726	0.106894	-0.165069	1.477963	0.055193	0.047556	1.444241	0.135099
1880	18.800000	-0.032090	1.571998	-0.067031	-0.039939	1.328459	-0.109582	-0.264658	1.180259	0.067210	-0.199633	1.165162	0.028737	-0.093735	1.180015	0.296644	-0.073208	1.237579	0.273048	-0.202241	1.498337	0.034405	-0.148983	1.194310	0.272854	-0.117207	1.203640	0.316508	-0.112938	1.229900	0.307343	-0.141664	1.235991	0.258295	-0.255058	1.291872	0.121076	-0.276453	1.299438	0.065238	-0.280205	1.362864	0.063816	-0.252128	1.365882	0.115296	0.097888	1.470928	0.092845	0.052698	1.422820	0.145379	0.058807	1.470800	0.113720	0.109756	1.422831	0.115109	0.036198	1.499617	0.052985	0.064932	1.318702	0.106973	-0.165091	1.477965	0.055280	0.047542	1.444209	0.135140
1881	18.810000	-0.032197	1.571937	-0.066962	-0.040063	1.328389	-0.109459	-0.264697	1.180266	0.067250	-0.199669	1.165170	0.028782	-0.093795	1.179962	0.296690	-0.073247	1.237518	0.273094	-0.202297	1.498294	0.034573	-0.149036	1.194268	0.272887	-0.117398	1.203535	0.316742	-0.112991	1.229854	0.307389	-0.141703	1.235960	0.258340	-0.255086	1.291871	0.121130	-0.276488	1.299450	0.065287	-0.280239	1.362874	0.063889	-0.252153	1.365885	0.115356	0.097874	1.470906	0.092894	0.052689	1.422795	0.145432	0.058834	1.470809	0.113821	0.109741	1.422804	0.115156	0.036150	1.499581	0.053035	0.064913	1.318678	0.107047	-0.165112	1.477967	0.055364	0.047525	1.444193	0.135201
1882	18.820000	-0.032297	1.571874	-0.066899	-0.040172	1.328318	-0.109346	-0.264735	1.180274	0.067282	-0.199703	1.165179	0.028821	-0.093852	1.179907	0.296729	-0.073286	1.237457	0.273134	-0.202350	1.498244	0.034724	-0.149085	1.194235	0.272932	-0.117442	1.203471	0.316764	-0.113039	1.229809	0.307425	-0.141756	1.235925	0.258379	-0.255135	1.291871	0.121175	-0.276521	1.299460	0.065336	-0.280271	1.362887	0.063933	-0.252197	1.365887	0.115411	0.097880	1.470879	0.092934	0.052679	1.422761	0.145477	0.058811	1.470781	0.113851	0.109749	1.422793	0.115188	0.036106	1.499545	0.053083	0.064900	1.318653	0.107116	-0.165131	1.477971	0.055444	0.047504	1.444158	0.135236
1883	18.830000	-0.032383	1.571815	-0.066843	-0.040260	1.328251	-0.109245	-0.264773	1.180283	0.067309	-0.199737	1.165188	0.028854	-0.093904	1.179854	0.296760	-0.073326	1.237401	0.273167	-0.202395	1.498192	0.034854	-0.149128	1.194206	0.272958	-0.117489	1.203437	0.316797	-0.113078	1.229776	0.307469	-0.141807	1.235890	0.258415	-0.255167	1.291876	0.121205	-0.276543	1.299474	0.065379	-0.280298	1.362907	0.063979	-0.252239	1.365897	0.115469	0.097867	1.470867	0.092984	0.052692	1.422748	0.145526	0.058815	1.470778	0.113914	0.109743	1.422774	0.115222	0.036067	1.499509	0.053126	0.064891	1.318628	0.107180	-0.165149	1.477975	0.055520	0.047509	1.444149	0.135287
1884	18.840000	-0.032455	1.571756	-0.066795	-0.040324	1.328185	-0.109158	-0.264810	1.180292	0.067331	-0.199769	1.165198	0.028883	-0.093951	1.179803	0.296784	-0.073367	1.237349	0.273195	-0.202432	1.498136	0.034961	-0.149175	1.194176	0.272985	-0.117536	1.203383	0.316818	-0.113114	1.229735	0.307494	-0.141852	1.235856	0.258445	-0.255212	1.291880	0.121237	-0.276574	1.299488	0.065402	-0.280323	1.362917	0.064019	-0.252269	1.365893	0.115511	0.097874	1.470843	0.093034	0.052694	1.422728	0.145575	0.058799	1.470751	0.113958	0.109731	1.422759	0.115254	0.036035	1.499474	0.053166	0.064887	1.318603	0.107239	-0.165165	1.477980	0.055593	0.047500	1.444124	0.135318
1885	18.850000	-0.032513	1.571695	-0.066758	-0.040363	1.328117	-0.109085	-0.264844	1.180302	0.067346	-0.199799	1.165209	0.028906	-0.093994	1.179753	0.296802	-0.073407	1.237301	0.273218	-0.202463	1.498070	0.035041	-0.149217	1.194143	0.273010	-0.117573	1.203356	0.316844	-0.113145	1.229701	0.307514	-0.141887	1.235824	0.258474	-0.255249	1.291889	0.121268	-0.276606	1.299502	0.065436	-0.280347	1.362933	0.064056	-0.252292	1.365903	0.115550	0.097867	1.470839	0.093068	0.052692	1.422717	0.145603	0.058787	1.470735	0.113984	0.109752	1.422755	0.115293	0.036007	1.499439	0.053200	0.064891	1.318579	0.107294	-0.165180	1.477985	0.055662	0.047496	1.444123	0.135363
1886	18.860000	-0.032556	1.571636	-0.066731	-0.040377	1.328051	-0.109024	-0.264877	1.180312	0.067358	-0.199827	1.165220	0.028925	-0.094030	1.179708	0.296813	-0.073448	1.237260	0.273236	-0.202486	1.498002	0.035095	-0.149256	1.194093	0.273042	-0.117617	1.203293	0.316858	-0.113150	1.229692	0.307461	-0.141923	1.235795	0.258500	-0.255295	1.291878	0.121295	-0.276641	1.299513	0.065455	-0.280375	1.362945	0.064082	-0.252318	1.365903	0.115603	0.097861	1.470828	0.093111	0.052694	1.422698	0.145641	0.058782	1.470722	0.114035	0.109746	1.422738	0.115312	0.035987	1.499404	0.053231	0.064900	1.318555	0.107346	-0.165192	1.477990	0.055726	0.047477	1.444101	0.135396
1887	18.870000	-0.032586	1.571573	-0.066714	-0.040367	1.327981	-0.108974	-0.264907	1.180322	0.067365	-0.199852	1.165231	0.028940	-0.094061	1.179667	0.296821	-0.073486	1.237224	0.273251	-0.202502	1.497924	0.035124	-0.149283	1.194067	0.273050	-0.117652	1.203262	0.316886	-0.113178	1.229656	0.307491	-0.141950	1.235763	0.258517	-0.255320	1.291895	0.121315	-0.276654	1.299527	0.065478	-0.280398	1.362959	0.064106	-0.252349	1.365908	0.115610	0.097866	1.470786	0.093170	0.052704	1.422693	0.145674	0.058759	1.470706	0.114059	0.109746	1.422728	0.115343	0.035970	1.499369	0.053256	0.064914	1.318533	0.107395	-0.165204	1.477996	0.055787	0.047483	1.444100	0.135432
1888	18.880000	-0.032605	1.571508	-0.066708	-0.040337	1.327909	-0.108933	-0.264935	1.180332	0.067369	-0.199875	1.165242	0.028952	-0.094088	1.179630	0.296825	-0.073523	1.237195	0.273263	-0.202513	1.497842	0.035131	-0.149314	1.194035	0.273066	-0.117622	1.203235	0.316813	-0.113212	1.229613	0.307508	-0.141985	1.235724	0.258536	-0.255359	1.291893	0.121339	-0.276677	1.299531	0.065492	-0.280425	1.362965	0.064133	-0.252363	1.365921	0.115665	0.097863	1.470772	0.093211	0.052714	1.422682	0.145707	0.058769	1.470690	0.114093	0.109747	1.422719	0.115373	0.035958	1.499335	0.053276	0.064933	1.318512	0.107444	-0.165214	1.478002	0.055843	0.047464	1.444080	0.135473
1889	18.890000	-0.032613	1.571442	-0.066711	-0.040292	1.327835	-0.108899	-0.264960	1.180342	0.067372	-0.199895	1.165254	0.028963	-0.094110	1.179599	0.296828	-0.073557	1.237172	0.273274	-0.202519	1.497758	0.035120	-0.149340	1.193997	0.273078	-0.117608	1.203222	0.316772	-0.113251	1.229574	0.307530	-0.142017	1.235697	0.258561	-0.255388	1.291897	0.121353	-0.276694	1.299542	0.065518	-0.280433	1.362980	0.064151	-0.252386	1.365922	0.115679	0.097865	1.470752	0.093254	0.052712	1.422683	0.145754	0.058797	1.470716	0.114159	0.109748	1.422715	0.115407	0.035950	1.499301	0.053293	0.064955	1.318492	0.107492	-0.165224	1.478009	0.055894	0.047466	1.444065	0.135500
1890	18.900000	-0.032617	1.571374	-0.066721	-0.040235	1.327758	-0.108869	-0.264982	1.180352	0.067373	-0.199912	1.165265	0.028972	-0.094128	1.179573	0.296830	-0.073588	1.237153	0.273285	-0.202522	1.497669	0.035096	-0.149366	1.193953	0.273105	-0.117639	1.203160	0.316805	-0.113288	1.229525	0.307557	-0.142046	1.235662	0.258587	-0.255414	1.291891	0.121375	-0.276712	1.299548	0.065525	-0.280451	1.362980	0.064171	-0.252418	1.365923	0.115705	0.097865	1.470713	0.093317	0.052707	1.422657	0.145773	0.058814	1.470715	0.114208	0.109746	1.422691	0.115433	0.035943	1.499268	0.053306	0.064980	1.318475	0.107540	-0.165234	1.478016	0.055943	0.047411	1.444096	0.135565
